<?xml version="1.0" encoding="UTF-8" standalone="no"?>
<svg
   contentStyleType="text/css"
   height="612.1488"
   preserveAspectRatio="none"
   version="1.1"
   viewBox="0 0 975.5 612.1488"
   width="975.5"
   zoomAndPan="magnify"
   id="svg77"
   sodipodi:docname="class-diagram.svg"
   inkscape:version="1.4 (e7c3feb100, 2024-10-09)"
   xmlns:inkscape="http://www.inkscape.org/namespaces/inkscape"
   xmlns:sodipodi="http://sodipodi.sourceforge.net/DTD/sodipodi-0.dtd"
   xmlns="http://www.w3.org/2000/svg"
   xmlns:svg="http://www.w3.org/2000/svg">
  <sodipodi:namedview
     id="namedview77"
     pagecolor="#ffffff"
     bordercolor="#999999"
     borderopacity="1"
     inkscape:showpageshadow="0"
     inkscape:pageopacity="0"
     inkscape:pagecheckerboard="0"
     inkscape:deskcolor="#d1d1d1"
     inkscape:zoom="0.80358923"
     inkscape:cx="376.4361"
     inkscape:cy="347.19231"
     inkscape:window-width="1880"
     inkscape:window-height="1015"
     inkscape:window-x="20"
     inkscape:window-y="510"
     inkscape:window-maximized="1"
     inkscape:current-layer="g77" />
  <defs
     id="defs1" />
  <g
     id="cluster_quickset_pan_tilt"
     transform="translate(-5.2499994,-5.8519994)">
    <path
       d="M 8.3400597,6.4412344 H 127.60902 a 3.7512379,2.3138843 0 0 1 2.50082,1.5425895 l 7.00232,13.9252021 h 840.54778 a 2.5008253,1.5425895 0 0 1 2.50083,1.54259 V 615.86899 a 2.5008253,1.5425895 0 0 1 -2.50083,1.54258 H 8.3400597 A 2.5008253,1.5425895 0 0 1 5.8392344,615.86899 V 7.9838239 A 2.5008253,1.5425895 0 0 1 8.3400597,6.4412344"
       fill="none"
       style="stroke:#000000;stroke-width:1.17847"
       id="path1" />
    <line
       style="stroke:#000000;stroke-width:1.5"
       x1="6"
       x2="137.2296"
       y1="31.669901"
       y2="31.669901"
       id="line1" />
    <text
       fill="#000000"
       font-family="sans-serif"
       font-size="14px"
       font-weight="bold"
       lengthAdjust="spacing"
       textLength="118.2296"
       x="10"
       y="23.5679"
       id="text1">quickset_pan_tilt</text>
  </g>
  <g
     id="cluster_controller"
     transform="matrix(1.0003049,0,0,0.90762964,-5.2945226,-2.8967214)">
    <path
       d="m 32.5,52.602 h 70.3277 a 3.75,3.75 0 0 1 2.5,2.5 l 7,22.5679 H 259.5 a 2.5,2.5 0 0 1 2.5,2.5 V 650.992 a 2.5,2.5 0 0 1 -2.5,2.5 h -227 a 2.5,2.5 0 0 1 -2.5,-2.5 V 55.102 a 2.5,2.5 0 0 1 2.5,-2.5"
       fill="none"
       style="stroke:#000000;stroke-width:1.5"
       id="path2" />
    <line
       style="stroke:#000000;stroke-width:1.5"
       x1="30"
       x2="112.3277"
       y1="77.669899"
       y2="77.669899"
       id="line2" />
    <text
       fill="#000000"
       font-family="sans-serif"
       font-size="14px"
       font-weight="bold"
       lengthAdjust="spacing"
       textLength="69.327698"
       x="34"
       y="69.567902"
       id="text2">controller</text>
  </g>
  <g
     id="elem_QuicksetController"
     transform="translate(-5.2499994,-5.8519994)">
    <rect
       codeLine="5"
       fill="#f1f1f1"
       height="314.95081"
       id="QuicksetController"
       rx="2.5"
       ry="2.5"
       style="stroke:#181818;stroke-width:0.5"
       width="200.6774"
       x="45.66"
       y="90.601997" />
    <circle
       cx="84.879799"
       cy="106.602"
       fill="#a9dcdf"
       style="stroke:#181818;stroke-width:1"
       id="ellipse3"
       r="11" />
    <path
       d="m 80.0517,112.352 3.3437,-12.1875 h 3.1406 l 3.375,12.1875 h -2.4687 l -0.7344,-3.0156 h -3.5156 l -0.75,3.0156 z m 4.4062,-8.0469 -0.75,3 h 2.5156 l -0.7187,-3 q -0.1406,-0.5781 -0.2656,-1.125 -0.125,-0.5625 -0.2657,-1.1406 -0.1093,0.5781 -0.25,1.1406 -0.1406,0.5469 -0.2656,1.125 z"
       fill="#000000"
       id="path4" />
    <text
       fill="#000000"
       font-family="sans-serif"
       font-size="14px"
       font-style="italic"
       lengthAdjust="spacing"
       textLength="114.8556"
       x="104.262"
       y="112.034"
       id="text4">QuicksetController</text>
    <line
       style="stroke:#181818;stroke-width:0.5"
       x1="46.66"
       x2="245.3374"
       y1="122.602"
       y2="122.602"
       id="line4" />
    <rect
       fill="none"
       height="6"
       style="stroke:#c82930;stroke-width:1"
       width="6"
       x="53.66"
       y="134.63589"
       id="rect4" />
    <text
       fill="#000000"
       font-family="sans-serif"
       font-size="14px"
       lengthAdjust="spacing"
       textLength="174.6774"
       x="65.660004"
       y="141.5679"
       id="text5">protocol: QuicksetProtocol</text>
    <circle
       cx="56.66"
       cy="156.7039"
       fill="none"
       style="stroke:#038048;stroke-width:1"
       id="ellipse5"
       r="3" />
    <text
       fill="#000000"
       font-family="sans-serif"
       font-size="14px"
       lengthAdjust="spacing"
       textLength="25.1159"
       x="65.660004"
       y="160.6358"
       id="text6">pan</text>
    <circle
       cx="56.66"
       cy="175.7718"
       fill="none"
       style="stroke:#038048;stroke-width:1"
       id="ellipse6"
       r="3" />
    <text
       fill="#000000"
       font-family="sans-serif"
       font-size="14px"
       lengthAdjust="spacing"
       textLength="17.3319"
       x="65.660004"
       y="179.7038"
       id="text7">tilt</text>
    <circle
       cx="56.66"
       cy="194.83971"
       fill="none"
       style="stroke:#038048;stroke-width:1"
       id="ellipse7"
       r="3" />
    <text
       fill="#000000"
       font-family="sans-serif"
       font-size="14px"
       lengthAdjust="spacing"
       textLength="105.5036"
       x="65.660004"
       y="198.7717"
       id="text8">pan_destination</text>
    <circle
       cx="56.66"
       cy="213.90759"
       fill="none"
       style="stroke:#038048;stroke-width:1"
       id="ellipse8"
       r="3" />
    <text
       fill="#000000"
       font-family="sans-serif"
       font-size="14px"
       lengthAdjust="spacing"
       textLength="97.719597"
       x="65.660004"
       y="217.8396"
       id="text9">tilt_destination</text>
    <circle
       cx="56.66"
       cy="232.97549"
       fill="none"
       style="stroke:#038048;stroke-width:1"
       id="ellipse9"
       r="3" />
    <text
       fill="#000000"
       font-family="sans-serif"
       font-size="14px"
       lengthAdjust="spacing"
       textLength="160.69141"
       x="65.660004"
       y="236.9075"
       id="text10">communication_timeout</text>
    <line
       style="stroke:#181818;stroke-width:0.5"
       x1="46.66"
       x2="245.3374"
       y1="245.00951"
       y2="245.00951"
       id="line10" />
    <circle
       cx="56.66"
       cy="260.0434"
       fill="#84be84"
       style="stroke:#038048;stroke-width:1"
       id="ellipse10"
       r="3" />
    <text
       fill="#000000"
       font-family="sans-serif"
       font-size="14px"
       lengthAdjust="spacing"
       textLength="46.507801"
       x="65.660004"
       y="263.9754"
       id="text11">home()</text>
    <circle
       cx="56.66"
       cy="279.11139"
       fill="#84be84"
       style="stroke:#038048;stroke-width:1"
       id="ellipse11"
       r="3" />
    <text
       fill="#000000"
       font-family="sans-serif"
       font-size="14px"
       lengthAdjust="spacing"
       textLength="130.4095"
       x="65.660004"
       y="283.0433"
       id="text12">move_delta(pan,tilt)</text>
    <circle
       cx="56.66"
       cy="298.17929"
       fill="#84be84"
       style="stroke:#038048;stroke-width:1"
       id="ellipse12"
       r="3" />
    <text
       fill="#000000"
       font-family="sans-serif"
       font-size="14px"
       lengthAdjust="spacing"
       textLength="154.2374"
       x="65.660004"
       y="302.1113"
       id="text13">move_absolute(pan,tilt)</text>
    <circle
       cx="56.66"
       cy="317.24719"
       fill="#84be84"
       style="stroke:#038048;stroke-width:1"
       id="ellipse13"
       r="3" />
    <text
       fill="#000000"
       font-family="sans-serif"
       font-size="14px"
       lengthAdjust="spacing"
       textLength="77.937698"
       x="65.660004"
       y="321.1792"
       id="text14">fault_reset()</text>
    <circle
       cx="56.66"
       cy="336.31509"
       fill="#84be84"
       style="stroke:#038048;stroke-width:1"
       id="ellipse14"
       r="3" />
    <text
       fill="#000000"
       font-family="sans-serif"
       font-size="14px"
       lengthAdjust="spacing"
       textLength="76.201698"
       x="65.660004"
       y="340.2471"
       id="text15">get_status()</text>
    <circle
       cx="56.66"
       cy="355.383"
       fill="#84be84"
       style="stroke:#038048;stroke-width:1"
       id="ellipse15"
       r="3" />
    <text
       fill="#000000"
       font-family="sans-serif"
       font-size="14px"
       lengthAdjust="spacing"
       textLength="154.0834"
       x="65.660004"
       y="359.315"
       id="text16">check_for_faults(status)</text>
    <rect
       fill="#f24d5c"
       height="6"
       style="stroke:#c82930;stroke-width:1"
       width="6"
       x="53.66"
       y="371.4509"
       id="rect16" />
    <text
       fill="#000000"
       font-family="sans-serif"
       font-size="14px"
       font-style="italic"
       lengthAdjust="spacing"
       textLength="37.365898"
       x="65.660004"
       y="378.3829"
       id="text17">send()</text>
    <rect
       fill="#f24d5c"
       height="6"
       style="stroke:#c82930;stroke-width:1"
       width="6"
       x="53.66"
       y="390.51889"
       id="rect17" />
    <text
       fill="#000000"
       font-family="sans-serif"
       font-size="14px"
       font-style="italic"
       lengthAdjust="spacing"
       textLength="51.1418"
       x="65.660004"
       y="397.45081"
       id="text18">receive()</text>
  </g>
  <g
     id="elem_ControllerSerial"
     transform="translate(-5.9777689,-63.343289)">
    <rect
       codeLine="26"
       fill="#f1f1f1"
       height="105.2038"
       id="ControllerSerial"
       rx="2.5"
       ry="2.5"
       style="stroke:#181818;stroke-width:0.5"
       width="134.6196"
       x="78.690002"
       y="532.29199" />
    <circle
       cx="93.690002"
       cy="548.29199"
       fill="#add1b2"
       style="stroke:#181818;stroke-width:1"
       id="ellipse18"
       r="11" />
    <path
       d="m 93.1588,555.2139 q -1.75,0 -2.8907,-0.7344 -1.125,-0.75 -1.6875,-2.0938 -0.5468,-1.3593 -0.5468,-3.1562 0,-2.0313 0.6562,-3.4844 0.6563,-1.4531 1.9375,-2.2344 1.2813,-0.7812 3.1563,-0.7812 0.8906,0 1.5625,0.1875 0.6718,0.1719 1.3593,0.5156 l -0.8125,2.0156 q -0.625,-0.3125 -1.1718,-0.4375 -0.5313,-0.125 -1.0157,-0.125 -1.1718,0 -1.875,0.5313 -0.7031,0.5312 -1,1.4844 -0.2968,0.9531 -0.2968,2.2187 0,2.0156 0.7187,2.9844 0.7188,0.9531 2.3125,0.9531 0.5938,0 1.2188,-0.1562 0.625,-0.1563 1.4531,-0.5313 v 2.2188 q -0.7344,0.3125 -1.5313,0.4687 -0.7812,0.1563 -1.5468,0.1563 z"
       fill="#000000"
       id="path18" />
    <text
       fill="#000000"
       font-family="sans-serif"
       font-size="14px"
       lengthAdjust="spacing"
       textLength="102.6196"
       x="107.69"
       y="553.724"
       id="text19">ControllerSerial</text>
    <line
       style="stroke:#181818;stroke-width:0.5"
       x1="79.690002"
       x2="212.3096"
       y1="564.29199"
       y2="564.29199"
       id="line19" />
    <rect
       fill="none"
       height="6"
       style="stroke:#c82930;stroke-width:1"
       width="6"
       x="86.690002"
       y="576.32593"
       id="rect19" />
    <text
       fill="#000000"
       font-family="sans-serif"
       font-size="14px"
       lengthAdjust="spacing"
       textLength="35.461899"
       x="98.690002"
       y="583.25787"
       id="text20">serial</text>
    <line
       style="stroke:#181818;stroke-width:0.5"
       x1="79.690002"
       x2="212.3096"
       y1="591.35992"
       y2="591.35992"
       id="line20" />
    <rect
       fill="#f24d5c"
       height="6"
       style="stroke:#c82930;stroke-width:1"
       width="6"
       x="86.690002"
       y="603.39392"
       id="rect20" />
    <text
       fill="#000000"
       font-family="sans-serif"
       font-size="14px"
       lengthAdjust="spacing"
       textLength="40.263802"
       x="98.690002"
       y="610.32581"
       id="text21">send()</text>
    <rect
       fill="#f24d5c"
       height="6"
       style="stroke:#c82930;stroke-width:1"
       width="6"
       x="86.690002"
       y="622.46179"
       id="rect21" />
    <text
       fill="#000000"
       font-family="sans-serif"
       font-size="14px"
       lengthAdjust="spacing"
       textLength="55.313801"
       x="98.690002"
       y="629.3938"
       id="text22">receive()</text>
  </g>
  <g
     id="link_QuicksetController_ControllerSerial"
     transform="matrix(1.0312625,0,0,0.55026973,-9.8143231,175.97872)">
    <path
       codeLine="116"
       d="m 146,423.702 c 0,45.61 0,74.29 0,108.43"
       fill="none"
       id="QuicksetController-backto-ControllerSerial"
       style="stroke:#181818;stroke-width:1" />
    <polygon
       fill="none"
       points="146,405.702 140,423.702 152,423.702 "
       style="stroke:#181818;stroke-width:1"
       id="polygon74" />
  </g>
  <g
     id="link_QuicksetController_QuicksetProtocol"
     transform="translate(-31.298838,363.7277)">
    <g
       id="g77">
      <g
         id="g79">
        <g
           id="g80">
          <path
             codeLine="117"
             d="m 283.18295,-241.54976 c 126.4108,-46.17587 260.6626,-31.7106 391.58197,-15.62595"
             fill="none"
             id="QuicksetController-backto-QuicksetProtocol"
             style="stroke:#181818;stroke-width:1"
             sodipodi:nodetypes="cc" />
        </g>
      </g>
    </g>
    <polygon
       fill="#181818"
       points="258.1995,271.4505 253.2393,266.2164 246.5,268.782 251.4603,274.0161 "
       style="stroke:#181818;stroke-width:1"
       id="polygon75"
       transform="rotate(-41.730145,-402.24685,-17.822153)"
       inkscape:transform-center-x="-1.9319696"
       inkscape:transform-center-y="3.5024833" />
  </g>
  <g
     id="g78"
     transform="translate(-11.843919,-382.6228)">
    <g
       id="cluster_protocol">
      <path
         d="m 288.5,427.552 h 59.7578 a 3.75,3.75 0 0 1 2.5,2.5 l 7,22.5679 H 953.5 a 2.5,2.5 0 0 1 2.5,2.5 V 970.272 a 2.5,2.5 0 0 1 -2.5,2.5 h -665 a 2.5,2.5 0 0 1 -2.5,-2.5 v -540.22 a 2.5,2.5 0 0 1 2.5,-2.5"
         fill="none"
         style="stroke:#000000;stroke-width:1.5"
         id="path3" />
      <line
         style="stroke:#000000;stroke-width:1.5"
         x1="286"
         x2="357.75781"
         y1="452.6199"
         y2="452.6199"
         id="line3" />
      <text
         fill="#000000"
         font-family="sans-serif"
         font-size="14px"
         font-weight="bold"
         lengthAdjust="spacing"
         textLength="58.757801"
         x="290"
         y="444.51791"
         id="text3">protocol</text>
    </g>
    <g
       id="elem_ControlCharacters">
      <rect
         codeLine="32"
         fill="#f1f1f1"
         height="135.3396"
         id="ControlCharacters"
         rx="2.5"
         ry="2.5"
         style="stroke:#181818;stroke-width:0.5"
         width="152.0356"
         x="301.98001"
         y="517.22198" />
      <circle
         cx="316.98001"
         cy="533.22198"
         fill="#add1b2"
         style="stroke:#181818;stroke-width:1"
         id="ellipse22"
         r="11" />
      <path
         d="m 316.4488,540.1439 q -1.75,0 -2.8907,-0.7344 -1.125,-0.75 -1.6875,-2.0938 -0.5468,-1.3593 -0.5468,-3.1562 0,-2.0313 0.6562,-3.4844 0.6563,-1.4531 1.9375,-2.2344 1.2813,-0.7812 3.1563,-0.7812 0.8906,0 1.5625,0.1875 0.6718,0.1719 1.3593,0.5156 l -0.8125,2.0156 q -0.625,-0.3125 -1.1718,-0.4375 -0.5313,-0.125 -1.0157,-0.125 -1.1718,0 -1.875,0.5313 -0.7031,0.5312 -1,1.4844 -0.2968,0.9531 -0.2968,2.2187 0,2.0156 0.7187,2.9844 0.7188,0.9531 2.3125,0.9531 0.5938,0 1.2188,-0.1562 0.625,-0.1563 1.4531,-0.5313 v 2.2188 q -0.7344,0.3125 -1.5313,0.4687 -0.7812,0.1563 -1.5468,0.1563 z"
         fill="#000000"
         id="path22" />
      <text
         fill="#000000"
         font-family="sans-serif"
         font-size="14px"
         lengthAdjust="spacing"
         textLength="120.0356"
         x="330.98001"
         y="538.65399"
         id="text23">ControlCharacters</text>
      <line
         style="stroke:#181818;stroke-width:0.5"
         x1="302.98001"
         x2="453.01559"
         y1="549.22198"
         y2="549.22198"
         id="line23" />
      <circle
         cx="312.98001"
         cy="564.25592"
         fill="none"
         style="stroke:#038048;stroke-width:1"
         id="ellipse23"
         r="3" />
      <text
         fill="#000000"
         font-family="sans-serif"
         font-size="14px"
         lengthAdjust="spacing"
         textLength="23.673901"
         x="321.98001"
         y="568.18793"
         id="text24">STX</text>
      <circle
         cx="312.98001"
         cy="583.32391"
         fill="none"
         style="stroke:#038048;stroke-width:1"
         id="ellipse24"
         r="3" />
      <text
         fill="#000000"
         font-family="sans-serif"
         font-size="14px"
         lengthAdjust="spacing"
         textLength="23.7719"
         x="321.98001"
         y="587.2558"
         id="text25">ETX</text>
      <circle
         cx="312.98001"
         cy="602.39178"
         fill="none"
         style="stroke:#038048;stroke-width:1"
         id="ellipse25"
         r="3" />
      <text
         fill="#000000"
         font-family="sans-serif"
         font-size="14px"
         lengthAdjust="spacing"
         textLength="26.4599"
         x="321.98001"
         y="606.32379"
         id="text26">ACK</text>
      <circle
         cx="312.98001"
         cy="621.45972"
         fill="none"
         style="stroke:#038048;stroke-width:1"
         id="ellipse26"
         r="3" />
      <text
         fill="#000000"
         font-family="sans-serif"
         font-size="14px"
         lengthAdjust="spacing"
         textLength="37.099899"
         x="321.98001"
         y="625.39172"
         id="text27">NACK</text>
      <circle
         cx="312.98001"
         cy="640.52759"
         fill="none"
         style="stroke:#038048;stroke-width:1"
         id="ellipse27"
         r="3" />
      <text
         fill="#000000"
         font-family="sans-serif"
         font-size="14px"
         lengthAdjust="spacing"
         textLength="24.3179"
         x="321.98001"
         y="644.45959"
         id="text28">ESC</text>
    </g>
    <g
       id="elem_QuicksetProtocol">
      <rect
         codeLine="39"
         fill="#f1f1f1"
         height="238.6792"
         id="QuicksetProtocol"
         rx="2.5"
         ry="2.5"
         style="stroke:#181818;stroke-width:0.5"
         width="269.3891"
         x="654.31"
         y="465.552" />
      <circle
         cx="732.49268"
         cy="481.552"
         fill="#a9dcdf"
         style="stroke:#181818;stroke-width:1"
         id="ellipse28"
         r="11" />
      <path
         d="m 727.6646,487.302 3.3437,-12.1875 h 3.1407 l 3.375,12.1875 h -2.4688 l -0.7344,-3.0156 h -3.5156 l -0.75,3.0156 z m 4.4062,-8.0469 -0.75,3 h 2.5157 l -0.7188,-3 q -0.1406,-0.5781 -0.2656,-1.125 -0.125,-0.5625 -0.2656,-1.1406 -0.1094,0.5781 -0.25,1.1406 -0.1407,0.5469 -0.2657,1.125 z"
         fill="#000000"
         id="path28" />
      <text
         fill="#000000"
         font-family="sans-serif"
         font-size="14px"
         font-style="italic"
         lengthAdjust="spacing"
         textLength="104.5236"
         x="752.99268"
         y="486.98401"
         id="text29">QuicksetProtocol</text>
      <line
         style="stroke:#181818;stroke-width:0.5"
         x1="655.31"
         x2="922.6991"
         y1="497.552"
         y2="497.552"
         id="line29" />
      <rect
         fill="none"
         height="6"
         style="stroke:#c82930;stroke-width:1"
         width="6"
         x="662.31"
         y="509.58591"
         id="rect29" />
      <text
         fill="#000000"
         font-family="sans-serif"
         font-size="14px"
         lengthAdjust="spacing"
         textLength="82.669701"
         x="674.31"
         y="516.51788"
         id="text30">COMMANDS</text>
      <rect
         fill="none"
         height="6"
         style="stroke:#c82930;stroke-width:1"
         width="6"
         x="662.31"
         y="528.65387"
         id="rect30" />
      <text
         fill="#000000"
         font-family="sans-serif"
         font-size="14px"
         lengthAdjust="spacing"
         textLength="130.95551"
         x="674.31"
         y="535.58582"
         id="text31">ANGLE_MULTIPLIER</text>
      <circle
         cx="665.31"
         cy="550.7218"
         fill="none"
         style="stroke:#038048;stroke-width:1"
         id="ellipse31"
         r="3" />
      <text
         fill="#000000"
         font-family="sans-serif"
         font-size="14px"
         lengthAdjust="spacing"
         textLength="128.95351"
         x="674.31"
         y="554.65381"
         id="text32">COMMAND_NAMES</text>
      <circle
         cx="665.31"
         cy="569.78967"
         fill="none"
         style="stroke:#038048;stroke-width:1"
         id="ellipse32"
         r="3" />
      <text
         fill="#000000"
         font-family="sans-serif"
         font-size="14px"
         lengthAdjust="spacing"
         text-decoration="underline"
         textLength="243.3891"
         x="674.31"
         y="573.72168"
         id="text33"
         style="text-decoration:underline;text-decoration-line:underline">CONTROL_CHARS: ControlCharacters</text>
      <line
         style="stroke:#181818;stroke-width:0.5"
         x1="655.31"
         x2="922.6991"
         y1="581.82361"
         y2="581.82361"
         id="line33" />
      <circle
         cx="665.31"
         cy="596.8576"
         fill="#84be84"
         style="stroke:#038048;stroke-width:1"
         id="ellipse33"
         r="3" />
      <text
         fill="#000000"
         font-family="sans-serif"
         font-size="14px"
         lengthAdjust="spacing"
         textLength="120.5955"
         x="674.31"
         y="600.78961"
         id="text34">assemble_packet()</text>
      <circle
         cx="665.31"
         cy="615.92548"
         fill="#84be84"
         style="stroke:#038048;stroke-width:1"
         id="ellipse34"
         r="3" />
      <text
         fill="#000000"
         font-family="sans-serif"
         font-size="14px"
         lengthAdjust="spacing"
         textLength="95.073601"
         x="674.31"
         y="619.85748"
         id="text35">parse_packet()</text>
      <circle
         cx="665.31"
         cy="634.99341"
         fill="#84be84"
         style="stroke:#038048;stroke-width:1"
         id="ellipse35"
         r="3" />
      <text
         fill="#000000"
         font-family="sans-serif"
         font-size="14px"
         lengthAdjust="spacing"
         textLength="151.1714"
         x="674.31"
         y="638.92542"
         id="text36">check_for_hard_faults()</text>
      <circle
         cx="665.31"
         cy="654.0614"
         fill="#84be84"
         style="stroke:#038048;stroke-width:1"
         id="ellipse36"
         r="3" />
      <text
         fill="#000000"
         font-family="sans-serif"
         font-size="14px"
         lengthAdjust="spacing"
         textLength="145.3194"
         x="674.31"
         y="657.99329"
         id="text37">check_for_soft_faults()</text>
      <rect
         fill="#f24d5c"
         height="6"
         style="stroke:#c82930;stroke-width:1"
         width="6"
         x="662.31"
         y="670.12927"
         id="rect37" />
      <text
         fill="#000000"
         font-family="sans-serif"
         font-size="14px"
         font-style="italic"
         lengthAdjust="spacing"
         textLength="134.3575"
         x="674.31"
         y="677.06128"
         id="text38">assemble_get_status()</text>
      <rect
         fill="#f24d5c"
         height="6"
         style="stroke:#c82930;stroke-width:1"
         width="6"
         x="662.31"
         y="689.1972"
         id="rect38" />
      <text
         fill="#000000"
         font-family="sans-serif"
         font-size="14px"
         font-style="italic"
         lengthAdjust="spacing"
         textLength="85.763702"
         x="674.31"
         y="696.12921"
         id="text39">parse_status()</text>
    </g>
    <g
       id="elem_PTCR20">
      <rect
         codeLine="69"
         fill="#f1f1f1"
         height="143.3396"
         id="PTCR20"
         rx="2.5"
         ry="2.5"
         style="stroke:#181818;stroke-width:0.5"
         width="170.78751"
         x="563.60999"
         y="788.83197" />
      <circle
         cx="619.84082"
         cy="804.83197"
         fill="#add1b2"
         style="stroke:#181818;stroke-width:1"
         id="ellipse39"
         r="11" />
      <path
         d="m 619.3096,811.7539 q -1.75,0 -2.8906,-0.7344 -1.125,-0.75 -1.6875,-2.0938 -0.5469,-1.3593 -0.5469,-3.1562 0,-2.0313 0.6562,-3.4844 0.6563,-1.4531 1.9375,-2.2344 1.2813,-0.7812 3.1563,-0.7812 0.8906,0 1.5625,0.1875 0.6719,0.1719 1.3594,0.5156 l -0.8125,2.0156 q -0.625,-0.3125 -1.1719,-0.4375 -0.5313,-0.125 -1.0156,-0.125 -1.1719,0 -1.875,0.5313 -0.7032,0.5312 -1,1.4844 -0.2969,0.9531 -0.2969,2.2187 0,2.0156 0.7187,2.9844 0.7188,0.9531 2.3125,0.9531 0.5938,0 1.2188,-0.1562 0.625,-0.1563 1.4531,-0.5313 v 2.2188 q -0.7344,0.3125 -1.5312,0.4687 -0.7813,0.1563 -1.5469,0.1563 z"
         fill="#000000"
         id="path39" />
      <text
         fill="#000000"
         font-family="sans-serif"
         font-size="14px"
         lengthAdjust="spacing"
         textLength="49.825802"
         x="640.34082"
         y="810.26398"
         id="text40">PTCR20</text>
      <line
         style="stroke:#181818;stroke-width:0.5"
         x1="564.60999"
         x2="733.39752"
         y1="820.83197"
         y2="820.83197"
         id="line40" />
      <circle
         cx="574.60999"
         cy="835.86591"
         fill="none"
         style="stroke:#038048;stroke-width:1"
         id="ellipse40"
         r="3" />
      <text
         fill="#000000"
         font-family="sans-serif"
         font-size="14px"
         lengthAdjust="spacing"
         textLength="49.629799"
         x="583.60999"
         y="839.79791"
         id="text41">identity</text>
      <circle
         cx="574.60999"
         cy="854.9339"
         fill="none"
         style="stroke:#038048;stroke-width:1"
         id="ellipse41"
         r="3" />
      <text
         fill="#000000"
         font-family="sans-serif"
         font-size="14px"
         lengthAdjust="spacing"
         text-decoration="underline"
         textLength="104.6496"
         x="583.60999"
         y="858.86578"
         id="text42"
         style="text-decoration:underline;text-decoration-line:underline">StatusResponse</text>
      <circle
         cx="574.60999"
         cy="874.00177"
         fill="none"
         style="stroke:#038048;stroke-width:1"
         id="ellipse42"
         r="3" />
      <text
         fill="#000000"
         font-family="sans-serif"
         font-size="14px"
         lengthAdjust="spacing"
         text-decoration="underline"
         textLength="67.745697"
         x="583.60999"
         y="877.93378"
         id="text43"
         style="text-decoration:underline;text-decoration-line:underline">GenStatus</text>
      <line
         style="stroke:#181818;stroke-width:0.5"
         x1="564.60999"
         x2="733.39752"
         y1="886.03571"
         y2="886.03571"
         id="line43" />
      <rect
         fill="#f24d5c"
         height="6"
         style="stroke:#c82930;stroke-width:1"
         width="6"
         x="571.60999"
         y="898.0697"
         id="rect43" />
      <text
         fill="#000000"
         font-family="sans-serif"
         font-size="14px"
         lengthAdjust="spacing"
         textLength="144.78751"
         x="583.60999"
         y="905.00171"
         id="text44">assemble_get_status()</text>
      <rect
         fill="#f24d5c"
         height="6"
         style="stroke:#c82930;stroke-width:1"
         width="6"
         x="571.60999"
         y="917.13757"
         id="rect44" />
      <text
         fill="#000000"
         font-family="sans-serif"
         font-size="14px"
         lengthAdjust="spacing"
         textLength="91.4897"
         x="583.60999"
         y="924.06958"
         id="text45">parse_status()</text>
    </g>
    <g
       id="elem_PTHR90">
      <rect
         codeLine="78"
         fill="#f1f1f1"
         height="143.3396"
         id="PTHR90"
         rx="2.5"
         ry="2.5"
         style="stroke:#181818;stroke-width:0.5"
         width="170.78751"
         x="769.60999"
         y="788.83197" />
      <circle
         cx="825.07782"
         cy="804.83197"
         fill="#add1b2"
         style="stroke:#181818;stroke-width:1"
         id="ellipse45"
         r="11" />
      <path
         d="m 824.5466,811.7539 q -1.75,0 -2.8906,-0.7344 -1.125,-0.75 -1.6875,-2.0938 -0.5469,-1.3593 -0.5469,-3.1562 0,-2.0313 0.6562,-3.4844 0.6563,-1.4531 1.9375,-2.2344 1.2813,-0.7812 3.1563,-0.7812 0.8906,0 1.5625,0.1875 0.6719,0.1719 1.3594,0.5156 l -0.8125,2.0156 q -0.625,-0.3125 -1.1719,-0.4375 -0.5313,-0.125 -1.0156,-0.125 -1.1719,0 -1.875,0.5313 -0.7032,0.5312 -1,1.4844 -0.2969,0.9531 -0.2969,2.2187 0,2.0156 0.7187,2.9844 0.7188,0.9531 2.3125,0.9531 0.5938,0 1.2188,-0.1562 0.625,-0.1563 1.4531,-0.5313 v 2.2188 q -0.7344,0.3125 -1.5312,0.4687 -0.7813,0.1563 -1.5469,0.1563 z"
         fill="#000000"
         id="path45" />
      <text
         fill="#000000"
         font-family="sans-serif"
         font-size="14px"
         lengthAdjust="spacing"
         textLength="51.351799"
         x="845.57782"
         y="810.26398"
         id="text46">PTHR90</text>
      <line
         style="stroke:#181818;stroke-width:0.5"
         x1="770.60999"
         x2="939.39752"
         y1="820.83197"
         y2="820.83197"
         id="line46" />
      <rect
         fill="none"
         height="6"
         style="stroke:#c82930;stroke-width:1"
         width="6"
         x="777.60999"
         y="832.86591"
         id="rect46" />
      <text
         fill="#000000"
         font-family="sans-serif"
         font-size="14px"
         lengthAdjust="spacing"
         textLength="130.95551"
         x="789.60999"
         y="839.79791"
         id="text47">ANGLE_MULTIPLIER</text>
      <circle
         cx="780.60999"
         cy="854.9339"
         fill="none"
         style="stroke:#038048;stroke-width:1"
         id="ellipse47"
         r="3" />
      <text
         fill="#000000"
         font-family="sans-serif"
         font-size="14px"
         lengthAdjust="spacing"
         text-decoration="underline"
         textLength="104.6496"
         x="789.60999"
         y="858.86578"
         id="text48"
         style="text-decoration:underline;text-decoration-line:underline">StatusResponse</text>
      <circle
         cx="780.60999"
         cy="874.00177"
         fill="none"
         style="stroke:#038048;stroke-width:1"
         id="ellipse48"
         r="3" />
      <text
         fill="#000000"
         font-family="sans-serif"
         font-size="14px"
         lengthAdjust="spacing"
         text-decoration="underline"
         textLength="67.745697"
         x="789.60999"
         y="877.93378"
         id="text49"
         style="text-decoration:underline;text-decoration-line:underline">GenStatus</text>
      <line
         style="stroke:#181818;stroke-width:0.5"
         x1="770.60999"
         x2="939.39752"
         y1="886.03571"
         y2="886.03571"
         id="line49" />
      <rect
         fill="#f24d5c"
         height="6"
         style="stroke:#c82930;stroke-width:1"
         width="6"
         x="777.60999"
         y="898.0697"
         id="rect49" />
      <text
         fill="#000000"
         font-family="sans-serif"
         font-size="14px"
         lengthAdjust="spacing"
         textLength="144.78751"
         x="789.60999"
         y="905.00171"
         id="text50">assemble_get_status()</text>
      <rect
         fill="#f24d5c"
         height="6"
         style="stroke:#c82930;stroke-width:1"
         width="6"
         x="777.60999"
         y="917.13757"
         id="rect50" />
      <text
         fill="#000000"
         font-family="sans-serif"
         font-size="14px"
         lengthAdjust="spacing"
         textLength="91.4897"
         x="789.60999"
         y="924.06958"
         id="text51">parse_status()</text>
    </g>
    <g
       id="elem_GenStatusCmd">
      <rect
         codeLine="86"
         fill="#f1f1f1"
         height="116.2717"
         id="GenStatusCmd"
         rx="2.5"
         ry="2.5"
         style="stroke:#181818;stroke-width:0.5"
         width="130.29359"
         x="488.85001"
         y="526.75201" />
      <circle
         cx="503.85001"
         cy="542.75201"
         fill="#f1f1f1"
         style="stroke:#181818;stroke-width:1"
         id="ellipse51"
         r="11" />
      <path
         d="m 503.5219,549.4239 q -0.9219,0 -1.8125,-0.1719 -0.8906,-0.1875 -1.6719,-0.5625 v -2.25 q 0.9531,0.4844 1.8281,0.7187 0.8907,0.2188 1.7344,0.2188 0.875,0 1.4375,-0.2969 0.5625,-0.2969 0.5625,-1.0781 0,-0.5469 -0.2969,-0.8438 -0.2968,-0.3125 -0.8593,-0.5937 -0.5625,-0.2813 -1.3438,-0.6875 -0.7812,-0.4219 -1.4375,-0.9063 -0.6406,-0.5 -1.0156,-1.1718 -0.375,-0.6719 -0.375,-1.625 0,-1.625 1.0937,-2.4219 1.1094,-0.8125 2.8907,-0.8125 0.7187,0 1.7031,0.1719 0.9844,0.1562 1.9375,0.6093 l -0.7813,1.9219 q -0.8437,-0.3594 -1.5312,-0.5 -0.6719,-0.1562 -1.1875,-0.1562 -0.8438,0 -1.2344,0.3437 -0.375,0.3281 -0.375,0.9688 0,0.4843 0.2344,0.7968 0.25,0.2969 0.7187,0.5469 0.4844,0.25 1.2188,0.625 1,0.4844 1.7031,0.9531 0.7031,0.4688 1.0781,1.0938 0.375,0.6094 0.375,1.5469 0,1.1875 -0.5781,1.9843 -0.5625,0.7813 -1.6094,1.1875 -1.0312,0.3907 -2.4062,0.3907 z"
         fill="#000000"
         id="path51" />
      <text
         fill="#000000"
         font-family="sans-serif"
         font-size="14px"
         lengthAdjust="spacing"
         textLength="98.293602"
         x="517.84998"
         y="548.18402"
         id="text52">GenStatusCmd</text>
      <line
         style="stroke:#181818;stroke-width:0.5"
         x1="489.85001"
         x2="618.14362"
         y1="558.75201"
         y2="558.75201"
         id="line52" />
      <circle
         cx="499.85001"
         cy="573.78589"
         fill="none"
         style="stroke:#038048;stroke-width:1"
         id="ellipse52"
         r="3" />
      <text
         fill="#000000"
         font-family="sans-serif"
         font-size="14px"
         lengthAdjust="spacing"
         textLength="24.1779"
         x="508.85001"
         y="577.7179"
         id="text53">RES</text>
      <circle
         cx="499.85001"
         cy="592.85388"
         fill="none"
         style="stroke:#038048;stroke-width:1"
         id="ellipse53"
         r="3" />
      <text
         fill="#000000"
         font-family="sans-serif"
         font-size="14px"
         lengthAdjust="spacing"
         textLength="34.873901"
         x="508.85001"
         y="596.78583"
         id="text54">STOP</text>
      <circle
         cx="499.85001"
         cy="611.92181"
         fill="none"
         style="stroke:#038048;stroke-width:1"
         id="ellipse54"
         r="3" />
      <text
         fill="#000000"
         font-family="sans-serif"
         font-size="14px"
         lengthAdjust="spacing"
         textLength="25.9559"
         x="508.85001"
         y="615.85382"
         id="text55">OSL</text>
      <circle
         cx="499.85001"
         cy="630.98969"
         fill="none"
         style="stroke:#038048;stroke-width:1"
         id="ellipse55"
         r="3" />
      <text
         fill="#000000"
         font-family="sans-serif"
         font-size="14px"
         lengthAdjust="spacing"
         textLength="18.9419"
         x="508.85001"
         y="634.92169"
         id="text56">RU</text>
    </g>
    <g
       id="elem_PanStatus">
      <rect
         codeLine="93"
         fill="#f1f1f1"
         height="192.5433"
         id="PanStatus"
         rx="2.5"
         ry="2.5"
         style="stroke:#181818;stroke-width:0.5"
         width="97.981796"
         x="302.01001"
         y="764.23199" />
      <circle
         cx="317.01001"
         cy="780.23199"
         fill="#f1f1f1"
         style="stroke:#181818;stroke-width:1"
         id="ellipse56"
         r="11" />
      <path
         d="m 316.6819,786.9039 q -0.9219,0 -1.8125,-0.1719 -0.8906,-0.1875 -1.6719,-0.5625 v -2.25 q 0.9531,0.4844 1.8281,0.7187 0.8907,0.2188 1.7344,0.2188 0.875,0 1.4375,-0.2969 0.5625,-0.2969 0.5625,-1.0781 0,-0.5469 -0.2969,-0.8438 -0.2968,-0.3125 -0.8593,-0.5937 -0.5625,-0.2813 -1.3438,-0.6875 -0.7812,-0.4219 -1.4375,-0.9063 -0.6406,-0.5 -1.0156,-1.1718 -0.375,-0.6719 -0.375,-1.625 0,-1.625 1.0937,-2.4219 1.1094,-0.8125 2.8907,-0.8125 0.7187,0 1.7031,0.1719 0.9844,0.1562 1.9375,0.6093 l -0.7813,1.9219 q -0.8437,-0.3594 -1.5312,-0.5 -0.6719,-0.1562 -1.1875,-0.1562 -0.8438,0 -1.2344,0.3437 -0.375,0.3281 -0.375,0.9688 0,0.4843 0.2344,0.7968 0.25,0.2969 0.7187,0.5469 0.4844,0.25 1.2188,0.625 1,0.4844 1.7031,0.9531 0.7031,0.4688 1.0781,1.0938 0.375,0.6094 0.375,1.5469 0,1.1875 -0.5781,1.9843 -0.5625,0.7813 -1.6094,1.1875 -1.0312,0.3907 -2.4062,0.3907 z"
         fill="#000000"
         id="path56" />
      <text
         fill="#000000"
         font-family="sans-serif"
         font-size="14px"
         lengthAdjust="spacing"
         textLength="65.981796"
         x="331.01001"
         y="785.664"
         id="text57">PanStatus</text>
      <line
         style="stroke:#181818;stroke-width:0.5"
         x1="303.01001"
         x2="398.99179"
         y1="796.23199"
         y2="796.23199"
         id="line57" />
      <circle
         cx="313.01001"
         cy="811.26593"
         fill="none"
         style="stroke:#038048;stroke-width:1"
         id="ellipse57"
         r="3" />
      <text
         fill="#000000"
         font-family="sans-serif"
         font-size="14px"
         lengthAdjust="spacing"
         textLength="24.443899"
         x="322.01001"
         y="815.19788"
         id="text58">PRF</text>
      <circle
         cx="313.01001"
         cy="830.33392"
         fill="none"
         style="stroke:#038048;stroke-width:1"
         id="ellipse58"
         r="3" />
      <text
         fill="#000000"
         font-family="sans-serif"
         font-size="14px"
         lengthAdjust="spacing"
         textLength="18.269899"
         x="322.01001"
         y="834.26581"
         id="text59">OL</text>
      <circle
         cx="313.01001"
         cy="849.40179"
         fill="none"
         style="stroke:#038048;stroke-width:1"
         id="ellipse59"
         r="3" />
      <text
         fill="#000000"
         font-family="sans-serif"
         font-size="14px"
         lengthAdjust="spacing"
         textLength="18.003901"
         x="322.01001"
         y="853.3338"
         id="text60">DE</text>
      <circle
         cx="313.01001"
         cy="868.46973"
         fill="none"
         style="stroke:#038048;stroke-width:1"
         id="ellipse60"
         r="3" />
      <text
         fill="#000000"
         font-family="sans-serif"
         font-size="14px"
         lengthAdjust="spacing"
         textLength="18.717899"
         x="322.01001"
         y="872.40167"
         id="text61">TO</text>
      <circle
         cx="313.01001"
         cy="887.5376"
         fill="none"
         style="stroke:#038048;stroke-width:1"
         id="ellipse61"
         r="3" />
      <text
         fill="#000000"
         font-family="sans-serif"
         font-size="14px"
         lengthAdjust="spacing"
         textLength="48.4258"
         x="322.01001"
         y="891.4696"
         id="text62">CCWHL</text>
      <circle
         cx="313.01001"
         cy="906.60553"
         fill="none"
         style="stroke:#038048;stroke-width:1"
         id="ellipse62"
         r="3" />
      <text
         fill="#000000"
         font-family="sans-serif"
         font-size="14px"
         lengthAdjust="spacing"
         textLength="39.577801"
         x="322.01001"
         y="910.53748"
         id="text63">CWHL</text>
      <circle
         cx="313.01001"
         cy="925.6734"
         fill="none"
         style="stroke:#038048;stroke-width:1"
         id="ellipse63"
         r="3" />
      <text
         fill="#000000"
         font-family="sans-serif"
         font-size="14px"
         lengthAdjust="spacing"
         textLength="45.737801"
         x="322.01001"
         y="929.60541"
         id="text64">CCWSL</text>
      <circle
         cx="313.01001"
         cy="944.74139"
         fill="none"
         style="stroke:#038048;stroke-width:1"
         id="ellipse64"
         r="3" />
      <text
         fill="#000000"
         font-family="sans-serif"
         font-size="14px"
         lengthAdjust="spacing"
         textLength="36.889801"
         x="322.01001"
         y="948.67328"
         id="text65">CWSL</text>
    </g>
    <g
       id="elem_TiltStatus">
      <rect
         codeLine="104"
         fill="#f1f1f1"
         height="192.5433"
         id="TiltStatus"
         rx="2.5"
         ry="2.5"
         style="stroke:#181818;stroke-width:0.5"
         width="93.067802"
         x="435.47"
         y="764.23199" />
      <circle
         cx="450.47"
         cy="780.23199"
         fill="#f1f1f1"
         style="stroke:#181818;stroke-width:1"
         id="ellipse65"
         r="11" />
      <path
         d="m 450.1419,786.9039 q -0.9219,0 -1.8125,-0.1719 -0.8906,-0.1875 -1.6719,-0.5625 v -2.25 q 0.9531,0.4844 1.8281,0.7187 0.8907,0.2188 1.7344,0.2188 0.875,0 1.4375,-0.2969 0.5625,-0.2969 0.5625,-1.0781 0,-0.5469 -0.2969,-0.8438 -0.2968,-0.3125 -0.8593,-0.5937 -0.5625,-0.2813 -1.3438,-0.6875 -0.7812,-0.4219 -1.4375,-0.9063 -0.6406,-0.5 -1.0156,-1.1718 -0.375,-0.6719 -0.375,-1.625 0,-1.625 1.0937,-2.4219 1.1094,-0.8125 2.8907,-0.8125 0.7187,0 1.7031,0.1719 0.9844,0.1562 1.9375,0.6093 l -0.7813,1.9219 q -0.8437,-0.3594 -1.5312,-0.5 -0.6719,-0.1562 -1.1875,-0.1562 -0.8438,0 -1.2344,0.3437 -0.375,0.3281 -0.375,0.9688 0,0.4843 0.2344,0.7968 0.25,0.2969 0.7187,0.5469 0.4844,0.25 1.2188,0.625 1,0.4844 1.7031,0.9531 0.7031,0.4688 1.0781,1.0938 0.375,0.6094 0.375,1.5469 0,1.1875 -0.5781,1.9843 -0.5625,0.7813 -1.6094,1.1875 -1.0312,0.3907 -2.4062,0.3907 z"
         fill="#000000"
         id="path65" />
      <text
         fill="#000000"
         font-family="sans-serif"
         font-size="14px"
         lengthAdjust="spacing"
         textLength="61.067799"
         x="464.47"
         y="785.664"
         id="text66">TiltStatus</text>
      <line
         style="stroke:#181818;stroke-width:0.5"
         x1="436.47"
         x2="527.53778"
         y1="796.23199"
         y2="796.23199"
         id="line66" />
      <circle
         cx="446.47"
         cy="811.26593"
         fill="none"
         style="stroke:#038048;stroke-width:1"
         id="ellipse66"
         r="3" />
      <text
         fill="#000000"
         font-family="sans-serif"
         font-size="14px"
         lengthAdjust="spacing"
         textLength="23.7579"
         x="455.47"
         y="815.19788"
         id="text67">TRF</text>
      <circle
         cx="446.47"
         cy="830.33392"
         fill="none"
         style="stroke:#038048;stroke-width:1"
         id="ellipse67"
         r="3" />
      <text
         fill="#000000"
         font-family="sans-serif"
         font-size="14px"
         lengthAdjust="spacing"
         textLength="18.269899"
         x="455.47"
         y="834.26581"
         id="text68">OL</text>
      <circle
         cx="446.47"
         cy="849.40179"
         fill="none"
         style="stroke:#038048;stroke-width:1"
         id="ellipse68"
         r="3" />
      <text
         fill="#000000"
         font-family="sans-serif"
         font-size="14px"
         lengthAdjust="spacing"
         textLength="18.003901"
         x="455.47"
         y="853.3338"
         id="text69">DE</text>
      <circle
         cx="446.47"
         cy="868.46973"
         fill="none"
         style="stroke:#038048;stroke-width:1"
         id="ellipse69"
         r="3" />
      <text
         fill="#000000"
         font-family="sans-serif"
         font-size="14px"
         lengthAdjust="spacing"
         textLength="18.717899"
         x="455.47"
         y="872.40167"
         id="text70">TO</text>
      <circle
         cx="446.47"
         cy="887.5376"
         fill="none"
         style="stroke:#038048;stroke-width:1"
         id="ellipse70"
         r="3" />
      <text
         fill="#000000"
         font-family="sans-serif"
         font-size="14px"
         lengthAdjust="spacing"
         textLength="27.929899"
         x="455.47"
         y="891.4696"
         id="text71">DHL</text>
      <circle
         cx="446.47"
         cy="906.60553"
         fill="none"
         style="stroke:#038048;stroke-width:1"
         id="ellipse71"
         r="3" />
      <text
         fill="#000000"
         font-family="sans-serif"
         font-size="14px"
         lengthAdjust="spacing"
         textLength="27.943899"
         x="455.47"
         y="910.53748"
         id="text72">UHL</text>
      <circle
         cx="446.47"
         cy="925.6734"
         fill="none"
         style="stroke:#038048;stroke-width:1"
         id="ellipse72"
         r="3" />
      <text
         fill="#000000"
         font-family="sans-serif"
         font-size="14px"
         lengthAdjust="spacing"
         textLength="25.241899"
         x="455.47"
         y="929.60541"
         id="text73">DSL</text>
      <circle
         cx="446.47"
         cy="944.74139"
         fill="none"
         style="stroke:#038048;stroke-width:1"
         id="ellipse73"
         r="3" />
      <text
         fill="#000000"
         font-family="sans-serif"
         font-size="14px"
         lengthAdjust="spacing"
         textLength="25.255899"
         x="455.47"
         y="948.67328"
         id="text74">USL</text>
    </g>
    <g
       id="link_QuicksetProtocol_PTCR20">
      <path
         codeLine="118"
         d="m 720.0024,720.7269 c -14.61,28.56 -21.5624,42.1551 -34.6624,67.7451"
         fill="none"
         id="QuicksetProtocol-backto-PTCR20"
         style="stroke:#181818;stroke-width:1" />
      <polygon
         fill="none"
         points="728.2,704.702 714.6607,717.9944 725.344,723.4595 "
         style="stroke:#181818;stroke-width:1"
         id="polygon76" />
    </g>
    <g
       id="link_QuicksetProtocol_PTHR90">
      <path
         codeLine="119"
         d="m 821.8813,722.2 c 6.89,28.56 9.8087,40.682 15.9887,66.272"
         fill="none"
         id="QuicksetProtocol-backto-PTHR90"
         style="stroke:#181818;stroke-width:1" />
      <polygon
         fill="none"
         points="817.66,704.702 816.0487,723.6071 827.714,720.7929 "
         style="stroke:#181818;stroke-width:1"
         id="polygon77" />
    </g>
  </g>
</svg>
